<?xml version="1.0" encoding="utf-8"?>
<!-- Generator: Adobe Illustrator 16.0.3, SVG Export Plug-In . SVG Version: 6.00 Build 0)  -->
<!DOCTYPE svg PUBLIC "-//W3C//DTD SVG 1.1//EN" "http://www.w3.org/Graphics/SVG/1.1/DTD/svg11.dtd">
<svg version="1.1" id="Layer_1" xmlns:sketch="http://www.bohemiancoding.com/sketch/ns"
	 xmlns="http://www.w3.org/2000/svg" xmlns:xlink="http://www.w3.org/1999/xlink" x="0px" y="0px" width="29px" height="20px"
	 viewBox="0 0 29 20" enable-background="new 0 0 29 20" xml:space="preserve">
<title>ic_send</title>
<desc>Created with Sketch.</desc>
<g id="Page-1" sketch:type="MSPage">
	<path id="ic_send" sketch:type="MSShapeGroup" fill="#5580FF" stroke="#5580FF" d="M4.985,10.336h20.853L1.813,18.299L4.985,10.336
		L4.985,10.336z M1.813,1.787l24.025,7.964H4.985L1.813,1.787L1.813,1.787z M1.318,1C1.093,1,0.936,1.203,1.026,1.405l3.419,8.639
		l-3.419,8.638c-0.09,0.225,0.135,0.473,0.382,0.383l26.388-8.729c0-0.022,0-0.022,0.022-0.022h0.023v-0.023h0.021l0.023-0.022
		c0.022,0,0.022-0.022,0.022-0.022c0.022,0,0.022-0.022,0.022-0.022l0.023-0.022v-0.022c0.021,0,0.021-0.022,0.021-0.022v-0.045
		c0.023,0,0.023,0,0.023-0.022v-0.022v-0.045V9.998V9.976l-0.023-0.022V9.931V9.908c0,0-0.021,0-0.021-0.022
		c0,0,0-0.022-0.023-0.022V9.841h-0.022V9.818h-0.022c0-0.022,0-0.022-0.023-0.022l-0.021-0.022h-0.023l-0.022-0.022L1.408,1.022
		C1.363,1,1.341,1,1.318,1L1.318,1L1.318,1z"/>
</g>
</svg>
