<?xml version="1.0" encoding="UTF-8"?>
<svg width="25px" height="25px" viewBox="0 0 25 25" version="1.1" xmlns="http://www.w3.org/2000/svg" xmlns:xlink="http://www.w3.org/1999/xlink">
    <!-- Generator: Sketch 42 (36781) - http://www.bohemiancoding.com/sketch -->
    <title>ic_footer_instagram</title>
    <desc>Created with Sketch.</desc>
    <defs></defs>
    <g id="Symbols" stroke="none" stroke-width="1" fill="none" fill-rule="evenodd">
        <g id="ic_footer_instagram" fill="#FFFFFF">
            <g id="Group-8" transform="translate(3.000000, 3.000000)">
                <path d="M17.0839952,15.8307453 C17.0839952,16.8278616 16.2919648,17.6375333 15.3154889,17.6375333 L3.99487838,17.6375333 C3.01948746,17.6375333 2.22745701,16.8278616 2.22745701,15.8307453 L2.22745701,8.10780834 L4.982204,8.10780834 C4.74350989,8.70674357 4.61005819,9.36002662 4.61005819,10.0443656 C4.61005819,12.8881988 6.87331231,15.2029725 9.65518362,15.2029725 C12.4381399,15.2029725 14.701394,12.8881988 14.701394,10.0443656 C14.701394,9.36002662 14.5668574,8.70674357 14.3292482,8.10780834 L17.0839952,8.10780834 L17.0839952,15.8307453 Z M7.02195364,8.10780834 C7.61217907,7.2715173 8.57129539,6.72360248 9.65518362,6.72360248 C10.7390719,6.72360248 11.6981882,7.2715173 12.2884136,8.10780834 C12.6746641,8.65350488 12.9035934,9.32120674 12.9035934,10.0443656 C12.9035934,11.8744454 11.4464744,13.3640195 9.65518362,13.3640195 C7.86497782,13.3640195 6.4078588,11.8744454 6.4078588,10.0443656 C6.4078588,9.32120674 6.63787312,8.65350488 7.02195364,8.10780834 L7.02195364,8.10780834 Z M16.3386186,2.78615794 L16.7465685,2.7850488 L16.7465685,3.1998669 L16.7465685,5.98269743 L13.6283555,5.99267968 L13.6185908,2.79503106 L16.3386186,2.78615794 Z M15.3154889,0.612244898 L3.99487838,0.612244898 C2.02890692,0.612244898 0.428571429,2.24711624 0.428571429,4.2579858 L0.428571429,8.10780834 L0.428571429,15.8307453 C0.428571429,17.8405058 2.02890692,19.4764862 3.99487838,19.4764862 L15.3154889,19.4764862 C17.2825453,19.4764862 18.8817958,17.8405058 18.8817958,15.8307453 L18.8817958,8.10780834 L18.8817958,4.2579858 C18.8817958,2.24711624 17.2825453,0.612244898 15.3154889,0.612244898 L15.3154889,0.612244898 Z" id="Fill-21"></path>
            </g>
        </g>
    </g>
</svg>