<?xml version="1.0" encoding="UTF-8"?>
<svg width="25px" height="25px" viewBox="0 0 25 25" version="1.1" xmlns="http://www.w3.org/2000/svg" xmlns:xlink="http://www.w3.org/1999/xlink">
    <!-- Generator: Sketch 42 (36781) - http://www.bohemiancoding.com/sketch -->
    <title>ic_footer_twitter</title>
    <desc>Created with Sketch.</desc>
    <defs></defs>
    <g id="Symbols" stroke="none" stroke-width="1" fill="none" fill-rule="evenodd">
        <g id="ic_footer_twitter" fill="#FFFFFF">
            <g id="Group-10" transform="translate(3.000000, 5.000000)">
                <path d="M16.7357188,2.6728039 C17.5190695,2.19365572 18.1201446,1.4338953 18.4022377,0.528837622 C17.6698807,0.973602484 16.8594058,1.29525288 15.9935971,1.46827862 C15.3035542,0.715173026 14.3173135,0.244897959 13.2258305,0.244897959 C11.1329171,0.244897959 9.43493406,1.98070098 9.43493406,4.12133984 C9.43493406,4.42524401 9.46748326,4.72027507 9.53258165,5.00421473 C6.38073447,4.84228039 3.58692845,3.30057675 1.71534966,0.952528838 C1.38877272,1.52817214 1.20215733,2.19365572 1.20215733,2.90350488 C1.20215733,4.24778172 1.8715858,5.43456078 2.88929067,6.12999113 C2.26760102,6.11113576 1.68280046,5.93478261 1.17069311,5.64640639 L1.17069311,5.69409938 C1.17069311,7.57298137 2.47808583,9.14019521 4.21404297,9.49511979 C3.89506084,9.58606921 3.56088909,9.63154392 3.21369766,9.63154392 C2.96957869,9.63154392 2.73196956,9.608252 2.50087026,9.56277728 C2.98259837,11.1022626 4.38329879,12.2247116 6.0433078,12.2535492 C4.74567984,13.2939219 3.10954024,13.9139308 1.33343909,13.9139308 C1.02747664,13.9139308 0.724769115,13.8961846 0.428571429,13.8606921 C2.10702499,14.95874 4.10012078,15.6009317 6.2418579,15.6009317 C13.2182357,15.6009317 17.0319165,9.69476486 17.0319165,4.5716504 C17.0319165,4.40306122 17.0286616,4.23447205 17.0210668,4.07031943 C17.7631884,3.52240461 18.4065776,2.84028394 18.91326,2.06277728 C18.2340668,2.37111801 17.5017099,2.5796362 16.7357188,2.6728039 Z" id="Fill-3"></path>
            </g>
        </g>
    </g>
</svg>