<?xml version="1.0" encoding="UTF-8"?>
<svg width="23px" height="23px" viewBox="0 0 23 23" version="1.1" xmlns="http://www.w3.org/2000/svg" xmlns:xlink="http://www.w3.org/1999/xlink">
    <!-- Generator: Sketch 44.1 (41455) - http://www.bohemiancoding.com/sketch -->
    <title>img_presskit_download</title>
    <desc>Created with Sketch.</desc>
    <defs></defs>
    <g id="LANDING-V2" stroke="none" stroke-width="1" fill="none" fill-rule="evenodd">
        <g id="img_presskit_download" transform="translate(1.000000, 1.000000)">
            <circle id="Oval-5" stroke="#5580FF" stroke-width="0.75" cx="10.5" cy="10.5" r="10.5"></circle>
            <g id="Group-19" transform="translate(7.000000, 5.000000)" fill-rule="nonzero" fill="#5580FF">
                <path d="M6.68821387,10 L0.351869849,10 C0.157577437,10 -4.4408921e-16,10.1682702 -4.4408921e-16,10.3757467 C-4.4408921e-16,10.5832233 0.157523444,10.7514935 0.351869849,10.7514935 L6.68818687,10.7514935 C6.88253327,10.7514935 7.04005672,10.5832809 7.04005672,10.3757467 C7.04005672,10.1682702 6.88253327,10 6.68821387,10 Z" id="Shape"></path>
                <path d="M7.2121438,5.10016947 C7.08269651,4.94544853 6.86027395,4.93198576 6.71530379,5.0702458 L4.00266099,7.65800899 L4.00266099,0.375746732 C4.00266099,0.168270191 3.84513755,0 3.65079114,0 C3.45649873,0 3.29892129,0.168212535 3.29892129,0.375746732 L3.29892129,7.65800899 L0.586278498,5.07027463 C0.441389325,4.93201459 0.218939765,4.94550619 0.0894384863,5.1001983 C-0.0399818036,5.25497689 -0.027482514,5.49252124 0.117433655,5.63075245 L3.06472834,8.44228011 C3.23175449,8.60167122 3.44121882,8.68132353 3.65076415,8.68132353 C3.86022848,8.68132353 4.06971982,8.60167122 4.23679995,8.4423666 L7.18409464,5.63075245 C7.3290648,5.49243476 7.34159109,5.25489041 7.2121438,5.10016947 Z" id="Shape"></path>
            </g>
        </g>
    </g>
</svg>