<svg id="Layer_1" data-name="Layer 1" xmlns="http://www.w3.org/2000/svg" xmlns:xlink="http://www.w3.org/1999/xlink" viewBox="0 0 215.6 85.7"><defs><style>.cls-1{fill:#4f9be6;}.cls-1,.cls-3,.cls-4,.cls-6{opacity:0.75;}.cls-2{fill:#5680fd;}.cls-3{fill:#27e3d6;}.cls-4{fill:url(#linear-gradient);}.cls-5{opacity:0.49;fill:url(#linear-gradient-2);}.cls-7{fill:#009ce0;}.cls-8{fill:#002c8a;}.cls-9{fill:#001b6b;}</style><linearGradient id="linear-gradient" x1="16.94" y1="33.58" x2="35.51" y2="52.15" gradientUnits="userSpaceOnUse"><stop offset="0" stop-color="#5680fd" stop-opacity="0"/><stop offset="1" stop-color="#2861e6"/></linearGradient><linearGradient id="linear-gradient-2" x1="43.86" y1="14.83" x2="43.86" y2="41.99" gradientUnits="userSpaceOnUse"><stop offset="0.09" stop-color="#4f9be6" stop-opacity="0"/><stop offset="0.92" stop-color="#7dffd4"/></linearGradient></defs><title>Nubi</title><path class="cls-1" d="M44.75,42c.11-.14.21-.29.31-.44C50.27,33.84,55.77,28.2,61.4,24.92a19,19,0,0,0-1.59-2.54c-6.89-9.33-24.51-11.7-31.6,2.71a21,21,0,0,0-1.89,5.72C32.31,31.35,38.36,36.35,44.75,42Z"/><path class="cls-2" d="M49.31,59c-25.12.63-33.35-1.47-36.45-10.6-2.41-7.08,1.24-16.27,10.9-17.57,15.54-2.1,31.21,29.6,51.89,28C73.78,59.22,66.7,58.82,49.31,59Z"/><path class="cls-3" d="M12.76,48.14c7.9,12.62,23.14,7,32.3-6.59,7.69-11.38,16-18.25,24.43-19.66A19.22,19.22,0,0,1,90.87,33.68C94.64,43.56,89.93,59,72.55,59c0,0-13.89-.07-22.89,0C23.48,59.24,16.37,58.14,12.76,48.14Z"/><path class="cls-4" d="M44.75,42c-7.3-6.44-14.15-12-21-11.13-9.53,1.29-13.21,10.25-11,17.29C20.58,60.62,35.57,55.22,44.75,42Z"/><path class="cls-5" d="M44.75,42c.11-.14.21-.29.31-.44C50.27,33.84,55.77,28.2,61.4,24.92a19,19,0,0,0-1.59-2.54c-6.89-9.33-24.51-11.7-31.6,2.71a21,21,0,0,0-1.89,5.72C32.31,31.35,38.36,36.35,44.75,42Z"/><path class="cls-2" d="M131.6,42.68V52.81a3.19,3.19,0,1,1-6.38,0V42.68c0-3.81-2.79-6.86-6.17-6.86-4.18,0-6.32,4.18-6.32,7.88v9.11a3.22,3.22,0,0,1-6.44,0V32.33a3.22,3.22,0,0,1,3.22-3.21,3.17,3.17,0,0,1,3,2.2,12,12,0,0,1,6.54-1.94C126,29.38,131.6,35.34,131.6,42.68Z"/><path class="cls-2" d="M148.33,56.3c-7,0-12.71-6.06-12.71-13.46V32.6a3.12,3.12,0,0,1,3-3.22A3.41,3.41,0,0,1,142,32.6V42.84c0,3.86,3.22,7,6.33,7,3.64,0,6.38-3.11,6.38-7V33A3.51,3.51,0,0,1,158,29.81,3.14,3.14,0,0,1,161.09,33v9.81C161.09,50.24,155.35,56.3,148.33,56.3Z"/><path class="cls-2" d="M192.72,42.52a13.57,13.57,0,0,1-13.57,13.56,13.36,13.36,0,0,1-7.66-2.35A3.32,3.32,0,0,1,168.38,56a3.24,3.24,0,0,1-3.27-3.22V18.66a3.24,3.24,0,1,1,6.48,0V31.21A14,14,0,0,1,179.15,29,13.57,13.57,0,0,1,192.72,42.52Zm-6.49,0a7.08,7.08,0,1,0-7.08,7.08A7.11,7.11,0,0,0,186.23,42.52Z"/><path class="cls-2" d="M200.12,24.67a3.34,3.34,0,0,1-3.38-3.27v-.27a3.33,3.33,0,1,1,6.65,0v.27A3.32,3.32,0,0,1,200.12,24.67Zm0,31.47a3.35,3.35,0,0,1-3.38-3.33V32.12a3.33,3.33,0,0,1,6.65,0V52.81A3.34,3.34,0,0,1,200.12,56.14Z"/><g class="cls-6"><path class="cls-2" d="M106.34,68.6a.17.17,0,0,1,0-.12V63.83a.17.17,0,0,1,0-.13.13.13,0,0,1,.12-.05h3.16a.17.17,0,0,1,.13.05.17.17,0,0,1,0,.13v.47a.17.17,0,0,1,0,.13.21.21,0,0,1-.13,0h-2.35v1.25h2.19a.15.15,0,0,1,.13,0,.17.17,0,0,1,0,.13v.45a.17.17,0,0,1,0,.12.19.19,0,0,1-.13,0h-2.19v1.29h2.4a.17.17,0,0,1,.13.05.13.13,0,0,1,0,.12v.49a.13.13,0,0,1,0,.12.14.14,0,0,1-.13.05h-3.21A.21.21,0,0,1,106.34,68.6Z"/><path class="cls-2" d="M110.53,68.6a.17.17,0,0,1,0-.12V65.1a.17.17,0,0,1,0-.12.21.21,0,0,1,.12,0h.6a.17.17,0,0,1,.17.17v.3a1.45,1.45,0,0,1,1.19-.54,1.34,1.34,0,0,1,1,.43,1.74,1.74,0,0,1,.38,1.18v2a.16.16,0,0,1,0,.12.19.19,0,0,1-.13.05h-.64a.17.17,0,0,1-.12-.05.13.13,0,0,1,0-.12v-2a.91.91,0,0,0-.21-.64.71.71,0,0,0-.58-.24.78.78,0,0,0-.59.24.94.94,0,0,0-.22.64v2a.16.16,0,0,1,0,.12.21.21,0,0,1-.13.05h-.64A.21.21,0,0,1,110.53,68.6Z"/><path class="cls-2" d="M116.63,68.58a1.16,1.16,0,0,1-.47-.4.93.93,0,0,1-.18-.55.94.94,0,0,1,.39-.79,2.54,2.54,0,0,1,1.08-.41l1-.14v-.15a.64.64,0,0,0-.15-.46.86.86,0,0,0-.88-.07.92.92,0,0,0-.24.17l-.11.12a.11.11,0,0,1-.11.08h-.56a.15.15,0,0,1-.11,0,.16.16,0,0,1,0-.11.85.85,0,0,1,.18-.41,1.29,1.29,0,0,1,.52-.39,2,2,0,0,1,.86-.17,1.72,1.72,0,0,1,1.23.38,1.31,1.31,0,0,1,.39,1v2.25a.17.17,0,0,1-.17.17h-.6a.18.18,0,0,1-.12-.05.17.17,0,0,1-.05-.12V68.2a1.18,1.18,0,0,1-.44.38,1.79,1.79,0,0,1-1.39,0Zm1.56-.8a1,1,0,0,0,.25-.74v-.15l-.71.12c-.55.08-.83.27-.83.55a.41.41,0,0,0,.19.35.86.86,0,0,0,.46.13A.87.87,0,0,0,118.19,67.78Z"/><path class="cls-2" d="M120.19,68.6a.17.17,0,0,1,0-.12V63.75a.17.17,0,0,1,0-.13.21.21,0,0,1,.12,0h.6a.17.17,0,0,1,.18.18v4.73a.17.17,0,0,1,0,.12.17.17,0,0,1-.13.05h-.6A.21.21,0,0,1,120.19,68.6Z"/><path class="cls-2" d="M121.88,64.28a.21.21,0,0,1,0-.13v-.52a.21.21,0,0,1,0-.13.17.17,0,0,1,.12,0h.66a.17.17,0,0,1,.18.18v.52a.18.18,0,0,1-.06.13.17.17,0,0,1-.12,0H122A.17.17,0,0,1,121.88,64.28Zm0,4.32a.13.13,0,0,1,0-.12V65.1a.13.13,0,0,1,0-.12.17.17,0,0,1,.12,0h.61a.17.17,0,0,1,.17.17v3.38a.17.17,0,0,1,0,.12.21.21,0,0,1-.12.05H122A.17.17,0,0,1,121.91,68.6Z"/><path class="cls-2" d="M124,68.58a1.16,1.16,0,0,1-.47-.4.93.93,0,0,1-.18-.55.94.94,0,0,1,.39-.79,2.54,2.54,0,0,1,1.08-.41l1-.14v-.15a.64.64,0,0,0-.15-.46.69.69,0,0,0-.51-.16.68.68,0,0,0-.37.09.92.92,0,0,0-.24.17l-.11.12a.11.11,0,0,1-.11.08h-.56a.15.15,0,0,1-.11,0,.16.16,0,0,1-.05-.11.85.85,0,0,1,.18-.41,1.29,1.29,0,0,1,.52-.39,2,2,0,0,1,.86-.17,1.72,1.72,0,0,1,1.23.38,1.31,1.31,0,0,1,.39,1v2.25a.17.17,0,0,1-.17.17H126a.18.18,0,0,1-.12-.05.17.17,0,0,1,0-.12V68.2a1.18,1.18,0,0,1-.44.38,1.79,1.79,0,0,1-1.39,0Zm1.56-.8a1,1,0,0,0,.25-.74v-.15l-.72.12c-.54.08-.82.27-.82.55a.41.41,0,0,0,.19.35.86.86,0,0,0,.46.13A.87.87,0,0,0,125.54,67.78Z"/><path class="cls-2" d="M127.53,68.6a.17.17,0,0,1,0-.12V65.1a.17.17,0,0,1,0-.12.21.21,0,0,1,.13,0h.59a.17.17,0,0,1,.12,0,.13.13,0,0,1,0,.12v.3a1.45,1.45,0,0,1,1.19-.54,1.34,1.34,0,0,1,1,.43,1.69,1.69,0,0,1,.38,1.18v2a.16.16,0,0,1,0,.12.17.17,0,0,1-.13.05h-.64a.17.17,0,0,1-.12-.05.13.13,0,0,1-.05-.12v-2a.91.91,0,0,0-.21-.64.71.71,0,0,0-.58-.24.74.74,0,0,0-.58.24.9.9,0,0,0-.23.64v2a.16.16,0,0,1,0,.12.19.19,0,0,1-.13.05h-.63A.21.21,0,0,1,127.53,68.6Z"/><path class="cls-2" d="M131.64,68.6a.13.13,0,0,1,0-.12v-.42a.36.36,0,0,1,0-.11,1.23,1.23,0,0,1,.08-.12l1.82-2.14h-1.69a.17.17,0,0,1-.18-.18V65.1a.21.21,0,0,1,.05-.12.21.21,0,0,1,.13,0h2.72a.17.17,0,0,1,.12,0,.16.16,0,0,1,.05.12v.45a.23.23,0,0,1,0,.11.41.41,0,0,1-.07.11l-1.79,2.12h1.86a.17.17,0,0,1,.18.18v.41a.17.17,0,0,1-.05.12.17.17,0,0,1-.13.05h-2.92A.17.17,0,0,1,131.64,68.6Z"/><path class="cls-2" d="M135.81,68.58a1.26,1.26,0,0,1-.48-.4.92.92,0,0,1-.17-.55.94.94,0,0,1,.39-.79,2.44,2.44,0,0,1,1.08-.41l1-.14v-.15a.6.6,0,0,0-.16-.46.65.65,0,0,0-.5-.16.71.71,0,0,0-.38.09,1.06,1.06,0,0,0-.23.17l-.12.12a.1.1,0,0,1-.11.08h-.55a.17.17,0,0,1-.12,0,.15.15,0,0,1,0-.11.74.74,0,0,1,.17-.41,1.45,1.45,0,0,1,.52-.39,2,2,0,0,1,.87-.17,1.72,1.72,0,0,1,1.23.38,1.34,1.34,0,0,1,.38,1v2.25a.16.16,0,0,1,0,.12.19.19,0,0,1-.13.05h-.59a.17.17,0,0,1-.12-.05.13.13,0,0,1-.05-.12V68.2a1.3,1.3,0,0,1-.45.38,1.66,1.66,0,0,1-.71.14A1.6,1.6,0,0,1,135.81,68.58Zm1.55-.8a1,1,0,0,0,.25-.74v-.15l-.71.12c-.55.08-.82.27-.82.55a.39.39,0,0,0,.19.35.8.8,0,0,0,.45.13A.85.85,0,0,0,137.36,67.78Z"/><path class="cls-2" d="M141.11,68.29a1.68,1.68,0,0,1-.49-1.21v-.57a1.66,1.66,0,0,1,.49-1.21,1.81,1.81,0,0,1,1.26-.44,2.09,2.09,0,0,1,.95.2,1.51,1.51,0,0,1,.58.49,1.11,1.11,0,0,1,.21.56.16.16,0,0,1-.05.12.21.21,0,0,1-.12,0h-.64a.21.21,0,0,1-.12,0l-.07-.12a.87.87,0,0,0-.28-.4.79.79,0,0,0-.45-.12.71.71,0,0,0-.56.23,1.06,1.06,0,0,0-.22.7V67q0,.93.78.93a.7.7,0,0,0,.73-.51.27.27,0,0,1,.07-.12.21.21,0,0,1,.12,0h.64a.16.16,0,0,1,.12,0,.13.13,0,0,1,.05.12,1.16,1.16,0,0,1-.2.54,1.61,1.61,0,0,1-.58.5,2.07,2.07,0,0,1-1,.2A1.8,1.8,0,0,1,141.11,68.29Z"/><path class="cls-2" d="M145,68.29a1.65,1.65,0,0,1-.49-1.18v-.63a1.65,1.65,0,0,1,.5-1.19,2.15,2.15,0,0,1,2.58,0,1.65,1.65,0,0,1,.5,1.19,2.29,2.29,0,0,1,0,.31,2.55,2.55,0,0,1,0,.32,1.65,1.65,0,0,1-.49,1.18,2.18,2.18,0,0,1-2.6,0Zm1.89-.53a1.09,1.09,0,0,0,.21-.69,3.92,3.92,0,0,0,0-.56,1.07,1.07,0,0,0-.22-.69.73.73,0,0,0-.58-.24.71.71,0,0,0-.58.24,1,1,0,0,0-.22.69v.56a1,1,0,0,0,.22.69.71.71,0,0,0,.58.24A.73.73,0,0,0,146.91,67.76Z"/><path class="cls-2" d="M148.78,68.6a.17.17,0,0,1-.05-.12V65.1a.17.17,0,0,1,.05-.12.21.21,0,0,1,.12,0h.6a.17.17,0,0,1,.17.17v.3a1.45,1.45,0,0,1,1.19-.54,1.34,1.34,0,0,1,1,.43,1.74,1.74,0,0,1,.38,1.18v2a.16.16,0,0,1,0,.12.19.19,0,0,1-.13.05h-.64a.17.17,0,0,1-.12-.05.13.13,0,0,1-.05-.12v-2a.91.91,0,0,0-.21-.64.71.71,0,0,0-.58-.24.78.78,0,0,0-.59.24.94.94,0,0,0-.22.64v2a.16.16,0,0,1,0,.12.21.21,0,0,1-.13.05h-.64A.21.21,0,0,1,148.78,68.6Z"/></g><path class="cls-7" d="M192.81,62.88h-2.53a.36.36,0,0,0-.35.29l-1,6.27a.21.21,0,0,0,.2.24h1.3a.26.26,0,0,0,.25-.2L191,67.7a.34.34,0,0,1,.34-.29h.8A2.57,2.57,0,0,0,195,65.09a1.8,1.8,0,0,0-.32-1.58A2.39,2.39,0,0,0,192.81,62.88Zm.29,2.3c-.14.87-.83.87-1.5.87h-.39l.27-1.64a.21.21,0,0,1,.21-.17h.18a1.52,1.52,0,0,1,1.11.25A.82.82,0,0,1,193.1,65.18Z"/><path class="cls-8" d="M174.76,62.88h-2.53a.36.36,0,0,0-.35.29l-1,6.27a.21.21,0,0,0,.21.24h1.21a.34.34,0,0,0,.34-.29l.28-1.69a.36.36,0,0,1,.35-.29h.8a2.58,2.58,0,0,0,2.88-2.32,1.83,1.83,0,0,0-.33-1.58A2.37,2.37,0,0,0,174.76,62.88Zm.29,2.3c-.14.87-.83.87-1.5.87h-.38l.27-1.64a.2.2,0,0,1,.2-.17h.18c.46,0,.89,0,1.11.25A.82.82,0,0,1,175.05,65.18Z"/><path class="cls-8" d="M182.32,65.15h-1.21a.21.21,0,0,0-.21.17l-.05.33-.08-.12a1.77,1.77,0,0,0-1.44-.49,2.75,2.75,0,0,0-2.7,2.35,2.15,2.15,0,0,0,.45,1.8,1.94,1.94,0,0,0,1.53.6,2.32,2.32,0,0,0,1.67-.67l-.05.32a.21.21,0,0,0,.21.24h1.09a.35.35,0,0,0,.35-.29l.65-4A.2.2,0,0,0,182.32,65.15Zm-1.69,2.28a1.33,1.33,0,0,1-1.36,1.12,1,1,0,0,1-.82-.32,1,1,0,0,1-.19-.82,1.34,1.34,0,0,1,1.36-1.13,1,1,0,0,1,.81.32A1,1,0,0,1,180.63,67.43Z"/><path class="cls-7" d="M200.37,65.15h-1.21a.21.21,0,0,0-.21.17l0,.33-.09-.12a1.75,1.75,0,0,0-1.43-.49,2.75,2.75,0,0,0-2.7,2.35,2.12,2.12,0,0,0,.45,1.8,1.92,1.92,0,0,0,1.52.6,2.36,2.36,0,0,0,1.68-.67l-.05.32a.2.2,0,0,0,.2.24h1.1a.34.34,0,0,0,.34-.29l.66-4A.2.2,0,0,0,200.37,65.15Zm-1.69,2.28a1.34,1.34,0,0,1-1.37,1.12,1,1,0,0,1-.81-.32,1,1,0,0,1-.19-.82,1.34,1.34,0,0,1,1.36-1.13,1.05,1.05,0,0,1,.81.32A1,1,0,0,1,198.68,67.43Z"/><path class="cls-8" d="M188.78,65.15h-1.22a.33.33,0,0,0-.29.15l-1.68,2.39-.71-2.3a.37.37,0,0,0-.34-.24h-1.2a.21.21,0,0,0-.2.27l1.34,3.8-1.26,1.72a.2.2,0,0,0,.17.32h1.22a.36.36,0,0,0,.29-.14l4-5.65A.2.2,0,0,0,188.78,65.15Z"/><path class="cls-7" d="M201.8,63.06l-1,6.38a.21.21,0,0,0,.21.24h1a.35.35,0,0,0,.35-.29l1-6.27a.21.21,0,0,0-.21-.24H202A.21.21,0,0,0,201.8,63.06Z"/><path class="cls-7" d="M165.74,63.48a2.14,2.14,0,0,0-.46-1.93,3.4,3.4,0,0,0-2.59-.81h-3.4a.49.49,0,0,0-.49.41L157.39,70a.29.29,0,0,0,.29.34h2.1l-.15.9a.25.25,0,0,0,.25.29h1.77a.42.42,0,0,0,.42-.35l0-.09.33-2.08,0-.12a.42.42,0,0,1,.42-.35h.26a3.12,3.12,0,0,0,3.45-2.68,2.25,2.25,0,0,0-.36-2,1.62,1.62,0,0,0-.48-.37h0"/><path class="cls-9" d="M165.74,63.48a2.14,2.14,0,0,0-.46-1.93,3.4,3.4,0,0,0-2.59-.81h-3.4a.49.49,0,0,0-.49.41L157.39,70a.29.29,0,0,0,.29.34h2.1l.52-3.3v.1a.48.48,0,0,1,.48-.4h1c2,0,3.5-.79,4-3.06l0-.2"/><path class="cls-8" d="M160.87,63.49a.4.4,0,0,1,.24-.31.37.37,0,0,1,.18,0H164a6.09,6.09,0,0,1,.88.06l.22,0,.21.06.1,0a2,2,0,0,1,.37.15,2.14,2.14,0,0,0-.46-1.93,3.4,3.4,0,0,0-2.59-.81h-3.4a.49.49,0,0,0-.49.41L157.39,70a.29.29,0,0,0,.29.34h2.1l.52-3.3Z"/></svg>