<?xml version="1.0" encoding="utf-8"?>
<!-- Generator: Adobe Illustrator 23.0.6, SVG Export Plug-In . SVG Version: 6.00 Build 0)  -->
<svg version="1.1" id="Layer_1" xmlns="http://www.w3.org/2000/svg" xmlns:xlink="http://www.w3.org/1999/xlink" x="0px" y="0px"
	 viewBox="0 0 480 68.1" style="enable-background:new 0 0 480 68.1;" xml:space="preserve">
<style type="text/css">
	.st0{fill:#FFFFFF;}
</style>
<path class="st0" d="M399.8,38.3v10.9c0,1.9-1.5,3.5-3.4,3.5c-2,0-3.5-1.6-3.5-3.5V38.3c0-4.1-3-7.4-6.6-7.4c-4.5,0-6.8,4.5-6.8,8.5
	v9.8c0,1.9-1.6,3.5-3.5,3.5c-1.9,0-3.5-1.6-3.5-3.5V27.2c0-1.9,1.6-3.5,3.5-3.5c1.5,0,2.8,1,3.2,2.4c2.1-1.3,4.4-2.1,7-2.1
	C393.7,24,399.8,30.4,399.8,38.3z M417.8,53c-7.5,0-13.7-6.5-13.7-14.5v-11c0-1.9,1.4-3.5,3.2-3.5c1.8,0,3.6,1.6,3.6,3.5v11
	c0,4.2,3.5,7.5,6.8,7.5c3.9,0,6.9-3.3,6.9-7.5V27.9c0-2,2-3.5,3.6-3.5c1.8,0,3.3,1.5,3.3,3.5v10.6C431.5,46.5,425.4,53,417.8,53z
	 M465.6,38.2c0,8.1-6.6,14.6-14.6,14.6c-3.1,0-5.9-0.9-8.3-2.5c-0.5,1.4-1.8,2.4-3.3,2.4c-2,0-3.5-1.6-3.5-3.5V12.5
	c0-1.9,1.6-3.5,3.5-3.5c1.9,0,3.5,1.6,3.5,3.5V26c2.4-1.5,5.1-2.4,8.1-2.4C459,23.5,465.6,30.1,465.6,38.2z M458.6,38.2
	c0-4.2-3.5-7.6-7.6-7.6c-4.2,0-7.6,3.4-7.6,7.6c0,4.2,3.4,7.6,7.6,7.6C455.2,45.8,458.6,42.4,458.6,38.2z M473.6,18.9
	c-2,0-3.6-1.6-3.6-3.5v-0.3c0-2,1.6-3.6,3.6-3.6c1.9,0,3.5,1.6,3.5,3.6v0.3C477.1,17.3,475.5,18.9,473.6,18.9z M473.6,52.8
	c-2,0-3.6-1.6-3.6-3.6V27c0-2,1.6-3.5,3.6-3.5c1.9,0,3.5,1.6,3.5,3.5v22.3C477.1,51.2,475.5,52.8,473.6,52.8z M289.2,26l-0.8-0.1
	c-0.9-0.1-1.8-0.1-2.6,0c-3.9,0.4-7.4,2.6-9.5,5.9c-2.2,3.5-2.8,7.8-1.6,11.8c0.1,0.1,0.2,0.3,0.2,0.4l0.3,0.4l0.3,0.4l0.3,0.4
	c0.1,0.1,0.2,0.3,0.3,0.4l0.3,0.4c0.1,0.1,0.2,0.2,0.3,0.3s0.2,0.2,0.3,0.3l0.3,0.3l0.3,0.3l0.3,0.3c0.1,0.1,0.2,0.2,0.4,0.3
	l0.3,0.2l0.4,0.3l0.3,0.2l0.4,0.3l0.2,0.1c0.6,0.4,1.3,0.7,1.9,1h0.1l0.5,0.2l0.3,0.1l0.5,0.1l0.3,0.1l0.5,0.1l0.3,0.1l0.5,0.1h0.3
	c0.2,0,0.4,0,0.5,0h0.4h0.4c0.4,0,0.8,0,1.2,0h0.1c6.5-0.6,13.6-5.5,19.1-13.3l0,0l-0.4-0.4l-0.2-0.2l-0.9-0.8
	c-4.9-4.3-9.5-7.9-13.9-9.4l-0.3-0.1l-0.8-0.2c-0.2-0.1-0.5-0.1-0.7-0.2L289.2,26z M292,18.3c-0.8,1.6-1.3,3.2-1.7,4.9l0,0
	c0.3,0.1,0.6,0.1,1,0.2l0.4,0.1l0.6,0.2l0.9,0.3l0.2,0.1c4.8,1.8,9.5,5.6,14.6,10.1l0.6,0.6l0.2,0.2l0.2-0.2l0.7-1l0.2-0.3
	c5.1-7.3,10.3-12.7,15.7-16.1c-0.4-0.6-0.7-1.2-1.1-1.8c-4.2-5.4-10.8-8.4-17.7-7.8C300.2,8.2,295,12,292,18.3z M314.2,55.8
	c9.7-0.1,24.7,0.3,24.9,0.3l0,0c9.2,0,14.1-4.5,16.6-8.1c3.7-5.6,4.5-12.7,2.3-19c-3.4-8.9-12.6-14.1-22-12.5
	c-3.1,0.6-6.1,1.7-8.8,3.4l-0.2,0.1c-0.2,0.1-0.4,0.3-0.7,0.4l-0.2,0.1c-0.4,0.3-0.8,0.5-1.2,0.8l-0.3,0.2l-0.6,0.5l-0.3,0.3
	l-0.6,0.5l-0.1,0.1c-0.5,0.4-1,0.8-1.4,1.2l-0.1,0.1c-0.2,0.2-0.5,0.5-0.7,0.7l-0.1,0.1c-2,1.9-3.8,3.9-5.5,6l-0.1,0.1l-0.7,0.9
	c0,0-0.1,0.1-0.1,0.1c-0.5,0.6-0.9,1.2-1.4,1.8l-0.1,0.2l-0.6,0.8l-0.4,0.5l-0.5,0.8l-0.5,0.7l-0.2,0.3l0,0l-0.5,0.8l0,0l-0.3,0.4
	l-0.5,0.7l0,0c-6.3,8.8-14.6,14.1-22.2,14.1c-0.1,0-0.2,0.1-0.3,0.1s0,0.1-0.1,0.1l0,0c0,0-0.1-0.1-0.1-0.1c-0.3,0-0.6,0-0.8-0.1
	c-0.1,0-0.2,0-0.3-0.1l-0.7-0.1l-0.3-0.1c-0.2,0-0.4-0.1-0.6-0.1l-0.3-0.1c-0.1,0-0.2,0.1-0.3,0.1C288.8,55.5,298.1,56,314.2,55.8z"
	/>
<path class="st0" d="M194.7,13.9h-13.9c-0.9,0-1.8,0.7-1.9,1.6l-5.6,35.6c-0.1,0.7,0.4,1.3,1.1,1.3h7.1c0.7,0,1.2-0.5,1.3-1.1
	l1.6-10.1c0.1-0.9,1-1.6,1.9-1.6h4.4c9.2,0,14.4-4.4,15.8-13.2c0.6-3.8,0-6.9-1.8-9C202.9,15.1,199.4,13.9,194.7,13.9 M196.3,26.9
	c-0.8,5-4.6,5-8.3,5H186l1.5-9.3c0.1-0.6,0.6-1,1.1-1h1c2.5,0,4.9,0,6.1,1.4C196.4,23.9,196.6,25.2,196.3,26.9 M95.6,13.9H81.7
	c-0.9,0-1.8,0.7-1.9,1.6l-5.6,35.6c-0.1,0.7,0.4,1.3,1.1,1.3H82c0.9,0,1.8-0.7,1.9-1.6l1.5-9.6c0.1-0.9,1-1.6,1.9-1.6h4.4
	c9.2,0,14.4-4.4,15.8-13.2c0.6-3.8,0-6.9-1.8-9C103.8,15.1,100.2,13.9,95.6,13.9 M97.2,26.9c-0.8,5-4.6,5-8.3,5h-2.1l1.5-9.3
	c0.1-0.6,0.6-1,1.1-1h1c2.5,0,4.9,0,6.1,1.4C97.3,23.9,97.5,25.2,97.2,26.9 M137.1,26.8h-6.7c-0.6,0-1.1,0.4-1.1,1l-0.3,1.9
	l-0.5-0.7c-1.4-2.1-4.7-2.8-7.9-2.8c-7.4,0-13.6,5.6-14.9,13.4c-0.6,3.9,0.3,7.6,2.5,10.2c2,2.4,4.9,3.4,8.4,3.4
	c5.9,0,9.2-3.8,9.2-3.8l-0.3,1.8c-0.1,0.7,0.4,1.3,1.1,1.3h6c0.9,0,1.8-0.7,1.9-1.6l3.6-22.8C138.4,27.4,137.8,26.8,137.1,26.8
	 M127.9,39.7c-0.6,3.8-3.7,6.4-7.5,6.4c-1.9,0-3.5-0.6-4.5-1.8c-1-1.2-1.4-2.8-1-4.7c0.6-3.8,3.7-6.4,7.5-6.4c1.9,0,3.4,0.6,4.4,1.8
	C127.8,36.2,128.2,37.9,127.9,39.7 M236.3,26.8h-6.7c-0.6,0-1.1,0.4-1.1,1l-0.3,1.9l-0.5-0.7c-1.4-2.1-4.7-2.8-7.9-2.8
	c-7.4,0-13.6,5.6-14.9,13.4c-0.6,3.9,0.3,7.6,2.5,10.2c2,2.4,4.9,3.4,8.4,3.4c5.9,0,9.2-3.8,9.2-3.8l-0.3,1.8
	c-0.1,0.7,0.4,1.3,1.1,1.3h6c0.9,0,1.8-0.7,1.9-1.6l3.6-22.8C237.5,27.4,237,26.8,236.3,26.8 M227,39.7c-0.6,3.8-3.7,6.4-7.5,6.4
	c-1.9,0-3.5-0.6-4.5-1.8c-1-1.2-1.4-2.8-1-4.7c0.6-3.8,3.7-6.4,7.5-6.4c1.9,0,3.4,0.6,4.4,1.8C226.9,36.2,227.3,37.9,227,39.7
	 M172.6,26.8c0.9,0,1.5,1.1,1,1.8l-22.2,32.1c-0.4,0.5-1,0.8-1.6,0.8H143c-0.9,0-1.5-1.1-0.9-1.8l6.9-9.8l-7.4-21.6
	c-0.3-0.8,0.3-1.5,1.1-1.5h6.6c0.9,0,1.6,0.6,1.8,1.4l3.9,13.1l9.2-13.6c0.4-0.5,1-0.8,1.6-0.8H172.6 M244.1,14.9
	c0.1-0.6,0.6-1,1.1-1h6.4c0.7,0,1.3,0.6,1.1,1.3l-5.6,35.6c-0.1,0.9-1,1.6-1.9,1.6h-5.7c-0.7,0-1.3-0.6-1.1-1.3L244.1,14.9
	 M20.4,12.9c-1.1,0.5-1.8,1.5-2,2.7l-6.2,39.1H1.7c-1,0-1.8-0.9-1.6-1.9L8,2.5c0.2-1.3,1.4-2.3,2.7-2.3h17.7C35,0.2,40.1,1.6,43,4.8
	c2,2.2,3.1,5,2.8,9.1c-0.2-0.1-0.4-0.2-0.6-0.2c-0.2-0.1-0.4-0.1-0.6-0.2c-0.4-0.1-0.8-0.2-1.3-0.3c-0.4-0.1-0.9-0.2-1.3-0.3
	c-1.5-0.2-3.3-0.4-5.1-0.4H22C21.4,12.6,20.9,12.7,20.4,12.9 M44.5,16.1c0.4,0.1,0.7,0.2,1,0.4c-0.2,1.2-0.6,2.4-1,3.8
	c-2,6.1-6,10-11.9,11.7c-2.3,0.7-5,1-8,1H19c-0.3,0-0.6,0-0.9,0.1l2.5-15.9c0.1-0.8,0.6-1.5,1.3-1.8c0.3-0.2,0.7-0.2,1-0.2h13.9
	c1.7,0,3.3,0.1,4.7,0.3c0.4,0.1,0.8,0.1,1.2,0.2c0.4,0.1,0.7,0.2,1.1,0.3C44.1,16,44.3,16,44.5,16.1 M49.6,19c2,2.3,2.7,5.5,2.2,9.3
	c-0.1,0.3-0.1,0.7-0.2,1c-2.2,11.3-9.7,15.2-19.3,15.2h-1.5c-1.2,0-2.2,0.9-2.4,2l-2.1,13c-0.2,1.2-1.2,2-2.4,2h-8.6
	c-0.8,0-1.5-0.7-1.4-1.6c0.2-1.1,3.5-22.1,3.5-22.1c0.2-1.3,1.3-2.3,2.7-2.3c0,0,4.3,0,4.3,0c17.3,0,21.9-10.5,23.5-18
	C48.5,18,49.1,18.4,49.6,19"/>
</svg>
