<?xml version="1.0" encoding="UTF-8"?>
<svg width="447px" height="180px" viewBox="0 0 447 180" version="1.1" xmlns="http://www.w3.org/2000/svg" xmlns:xlink="http://www.w3.org/1999/xlink">
    <!-- Generator: Sketch 42 (36781) - http://www.bohemiancoding.com/sketch -->
    <title>img_nosotros_alianza</title>
    <desc>Created with Sketch.</desc>
    <defs>
        <polygon id="path-1" points="3.68055056 20.9039674 3.68055056 0 0 3.47144644e-14 0 20.9039674 3.68055056 20.9039674"></polygon>
        <polygon id="path-3" points="0 0.38052622 0 27.6774443 36.6448414 27.6774443 36.6448414 0.38052622 1.21753529e-20 0.38052622"></polygon>
        <polygon id="path-5" points="39.4432129 0.674827164 0.056328581 0.674827164 0.056328581 30.6830238 39.4432129 30.6830238 39.4432129 0.674827164"></polygon>
        <polygon id="path-7" points="0.176082965 44.1063506 85.1721642 44.1063506 85.1721642 0.474817776 0.176082965 0.474817776 0.176082965 44.1063506"></polygon>
    </defs>
    <g id="Symbols" stroke="none" stroke-width="1" fill="none" fill-rule="evenodd">
        <g id="img_nosotros_alianza">
            <g id="Group-7" transform="translate(6.000000, 6.000000)">
                <g id="Group-5">
                    <ellipse id="Oval-12" stroke="#DBDBDB" stroke-width="5" stroke-linecap="round" stroke-linejoin="bevel" stroke-dasharray="1,12" cx="217.5" cy="90.3959391" rx="107.470588" ry="49.4619289"></ellipse>
                    <g id="Group-3" transform="translate(266.970588, 0.000000)">
                        <ellipse id="Oval-11-Copy" fill="#5580FF" cx="84.0147059" cy="84" rx="84.0147059" ry="84"></ellipse>
                        <g id="paypal_logo" transform="translate(54.588235, 50.314721)" fill="#FFFFFF">
                            <g id="Layer_1">
                                <g id="Group">
                                    <path d="M57.7638686,18.9592977 C58.686784,13.1538488 57.7577056,9.20450187 54.5752655,5.62607125 C51.0715769,1.68736533 44.7421342,0 36.6438988,0 L13.1365211,0 C11.4817447,0 10.0719491,1.1879964 9.8146422,2.80163451 L0.0254225426,64.042355 C-0.167172477,65.2508734 0.779624639,66.3431004 2.0183958,66.3431004 L16.5308157,66.3431004 L15.5293216,72.6099144 C15.3606084,73.667178 16.1879966,74.6225916 17.2726917,74.6225916 L29.505557,74.6225916 C30.9531012,74.6225916 32.1857093,73.5835698 32.4114307,72.1721115 L32.5316099,71.5579713 L34.8358168,57.1408787 L34.9845001,56.3443207 C35.2102215,54.9336225 36.4428296,53.8930805 37.8903738,53.8930805 L39.7200265,53.8930805 C51.5707832,53.8930805 60.8500112,49.1433751 63.5609787,35.4057891 C64.6942078,29.6657067 64.1079486,24.8741972 61.1119405,21.5055471 C60.2067439,20.4885675 59.0789074,19.646405 57.7638686,18.9592977 L57.7638686,18.9592977" id="Shape" opacity="0.68"></path>
                                    <path d="M57.7638686,18.9592977 C58.686784,13.1538488 57.7577056,9.20450187 54.5752655,5.62607125 C51.0715769,1.68736533 44.7421342,0 36.6438988,0 L13.1365211,0 C11.4817447,0 10.0719491,1.1879964 9.8146422,2.80163451 L0.0254225426,64.042355 C-0.167172477,65.2508734 0.779624639,66.3431004 2.0183958,66.3431004 L16.5308157,66.3431004 L20.1762542,43.5355457 L20.0630084,44.2507757 C20.3210857,42.6378977 21.7177848,41.4491412 23.3733316,41.4491412 L30.2713148,41.4491412 C43.8176781,41.4491412 54.4250414,36.0191692 57.5235101,20.3160306 C57.6159557,19.8523852 57.6937641,19.401661 57.7638686,18.9592977" id="Shape" opacity="0.7"></path>
                                    <path d="M24.0928666,19.0360652 C24.247713,18.0662102 24.8794246,17.2711723 25.7291539,16.8698529 C26.1151143,16.6874351 26.5472975,16.5855851 26.9995106,16.5855851 L45.4262317,16.5855851 C47.6094888,16.5855851 49.644833,16.7269589 51.5053009,17.0226279 C52.0368631,17.1069962 52.5545586,17.2042857 53.0576167,17.3144965 C53.5599046,17.4247073 54.0483255,17.5470793 54.5205685,17.6838927 C54.7570752,17.7515393 54.9889596,17.8237464 55.2177625,17.8982337 C56.1314333,18.197703 56.9827032,18.5503776 57.7654094,18.9600577 C58.6883247,13.1546089 57.7592464,9.20526194 54.5768063,5.62683132 C51.0715769,1.68736533 44.7421342,0 36.6438988,0 L13.1365211,0 C11.4817447,0 10.0719491,1.1879964 9.8146422,2.80163451 L0.0254225426,64.042355 C-0.167172477,65.2508734 0.779624639,66.3431004 2.0183958,66.3431004 L16.5308157,66.3431004 L20.1762542,43.5355457 L24.0928666,19.0360652 Z" id="Shape"></path>
                                </g>
                            </g>
                        </g>
                    </g>
                    <g id="Page-1" transform="translate(129.647059, 73.340102)">
                        <g id="Group-9" transform="translate(0.665714, 0.425771)">
                            <mask id="mask-2" fill="white">
                                <use xlink:href="#path-1"></use>
                            </mask>
                            <g id="Clip-8"></g>
                        </g>
                    </g>
                    <g id="Group-4">
                        <ellipse id="Oval-11" fill="#5580FF" cx="84.0147059" cy="84" rx="84.0147059" ry="84"></ellipse>
                        <g id="Group-2" transform="translate(36.676471, 57.989848)">
                            <g id="Group-12" transform="translate(0.000000, 20.496221)">
                                <mask id="mask-4" fill="white">
                                    <use xlink:href="#path-3"></use>
                                </mask>
                                <g id="Clip-11"></g>
                                <path d="M16.8948011,0.577440342 C16.5839608,0.525394848 16.2740188,0.481288498 15.9640769,0.450414052 C14.9758561,0.348969446 13.9930257,0.355144335 13.0173824,0.487463387 C7.21742511,1.27432068 4.06500101,4.4199856 2.44252227,6.91993356 C0.0114992957,10.6645627 -0.649710204,15.4721549 0.660131441,19.8148662 C0.752664836,19.9612993 0.84879176,20.1033217 0.94312192,20.2462263 C1.03924884,20.390013 1.13268062,20.5364461 1.23060431,20.6767043 C1.34020697,20.8337229 1.45340316,20.9836845 1.56570097,21.1354103 C1.66721819,21.2730222 1.76783703,21.4141625 1.8720494,21.5482458 C1.98344882,21.6920325 2.09934016,21.8287622 2.21433312,21.9681382 C2.3230374,22.1004573 2.42994491,22.2354227 2.54044596,22.3633311 C2.65274376,22.4930038 2.76953349,22.6147373 2.88452644,22.7399994 C3.00131616,22.8679078 3.1172075,22.9993447 3.23669237,23.1228425 C3.34899018,23.2384011 3.46488152,23.3460206 3.57807771,23.4571686 C3.70474964,23.5797843 3.8296248,23.7068106 3.9580935,23.8241335 C4.06949292,23.9264602 4.1835875,24.0199657 4.29588531,24.1169996 C4.43243944,24.2352047 4.56719681,24.3569382 4.70554771,24.4689683 C4.81245523,24.5562989 4.92295627,24.6348082 5.03076217,24.7177281 C5.17899528,24.8315225 5.32633,24.9488454 5.47725826,25.0564649 C5.57697871,25.1270351 5.67939432,25.1896661 5.78001315,25.2575899 C5.94351876,25.3687379 6.10612599,25.4816501 6.27322513,25.584859 C6.3513844,25.633376 6.43223883,25.674836 6.51129648,25.7224708 C7.20933967,26.1353063 7.93253756,26.4872749 8.67999177,26.7713198 C8.71502869,26.7845517 8.74826884,26.80043 8.78330576,26.8136619 C8.98005152,26.8859963 9.17949243,26.9477452 9.37893334,27.0112584 C9.47595864,27.0421328 9.5702888,27.0783 9.66731411,27.1065281 C9.85327928,27.16122 10.0419396,27.2053263 10.2297015,27.252079 C10.3437961,27.2803071 10.4569923,27.3138279 10.5728836,27.3394096 C10.7552553,27.3799875 10.9412205,27.4108619 11.1262872,27.4443827 C11.250264,27.4664359 11.372444,27.4937818 11.4973192,27.5123065 C11.6832844,27.5405346 11.8719447,27.5590592 12.060605,27.5802303 C12.1872769,27.5943443 12.3121521,27.6137511 12.4406208,27.6243366 C12.633773,27.6410971 12.8305188,27.6472719 13.0263662,27.6569753 C13.1566316,27.6622681 13.2859987,27.6737358 13.4180609,27.6755 C13.4611833,27.6772643 13.5034073,27.6772643 13.5465296,27.6772643 C13.639063,27.6781464 13.730698,27.6755 13.8232314,27.6755 C14.2616421,27.6728536 14.7036463,27.654329 15.1483456,27.6163975 C15.1770938,27.6137511 15.2058421,27.6102226 15.2336919,27.6075762 C22.5078948,26.9424525 30.4837344,21.542953 36.6286705,13.0498342 C36.6340608,13.0427771 36.6394511,13.0357201 36.6448414,13.027781 C36.4867261,12.889287 36.3286107,12.7490288 36.1713938,12.6105349 C36.089641,12.5390826 36.0078882,12.4667482 35.9261354,12.3952959 C35.5847501,12.0953727 35.2451615,11.8007423 34.9064713,11.5078761 C29.4245414,6.76379707 24.2804034,2.82245359 19.3392998,1.18963649 C19.238681,1.15611566 19.1380621,1.12700547 19.0374433,1.09613102 C18.7221111,0.997332799 18.4076772,0.908237971 18.0932433,0.82884654 C17.8219318,0.761804887 17.5497219,0.697409615 17.2793088,0.645364122 C17.1508401,0.619782438 17.0223714,0.599493517 16.8948011,0.577440342" id="Fill-10" fill="#FFFFFF" mask="url(#mask-4)"></path>
                            </g>
                            <g id="Group-15" transform="translate(17.967649, 0.207300)">
                                <mask id="mask-6" fill="white">
                                    <use xlink:href="#path-5"></use>
                                </mask>
                                <g id="Clip-14"></g>
                                <path d="M1.99683472,12.4732759 C1.12091181,14.2622295 0.470482901,16.0732363 0.056328581,17.8736575 C0.0707027006,17.8763039 0.0859752026,17.8807145 0.101247705,17.8833609 C0.452515251,17.9459919 0.803782798,18.0218548 1.15594873,18.106539 C1.2907061,18.1382956 1.42546347,18.1735807 1.56022084,18.2088658 C1.78032455,18.2670862 2.00042825,18.3297172 2.22053196,18.3967588 C2.54394965,18.4929107 2.86736734,18.599648 3.19078503,18.7134424 C3.28152166,18.7460811 3.37225829,18.7760734 3.46299492,18.8104764 C8.78141915,20.7573307 14.0971482,24.9280272 19.7623481,29.8697027 C19.992334,30.0708277 20.2232183,30.2719527 20.4541026,30.4748419 C20.5340587,30.5445299 20.6122179,30.6124537 20.692174,30.6830238 C20.7541624,30.5930469 20.8161508,30.5065984 20.8772408,30.4166215 C21.1332798,30.0434818 21.3902172,29.6747527 21.6471545,29.3104342 C21.7325009,29.1887007 21.8178472,29.066085 21.9040919,28.9452336 C27.602532,20.925817 33.4671727,15.0279158 39.4432129,11.2912257 C39.053315,10.6296305 38.62838,9.98303139 38.170205,9.36024972 C33.9010915,3.5532076 25.9540001,0.0979160983 18.4048922,0.754218595 C11.2151373,1.38229303 5.38733017,5.54416827 1.99683472,12.4732759" id="Fill-13" fill="#FFFFFF" mask="url(#mask-6)"></path>
                            </g>
                            <g id="Group-18" transform="translate(9.882207, 9.910697)">
                                <mask id="mask-8" fill="white">
                                    <use xlink:href="#path-7"></use>
                                </mask>
                                <g id="Clip-17"></g>
                                <path d="M34.9488749,43.8135726 C45.7474323,43.7183029 62.5516764,44.1064388 62.7205723,44.1064388 L62.7331497,44.1064388 C73.0357999,44.1064388 78.4817944,39.1762309 81.2362351,35.2851687 C85.3373511,29.4913585 86.3282669,21.2267105 83.7615882,14.4555036 C80.1024764,4.80326979 69.7827569,-0.984365532 59.2195758,0.79488465 C55.9467685,1.34621403 52.6398226,2.6023629 49.3409622,4.59949845 C49.2502255,4.65419033 49.1603873,4.69476817 49.070549,4.75034217 C48.8234939,4.90206802 48.5773371,5.04938323 48.3302819,5.20993034 C48.2494275,5.26285796 48.1676746,5.31490346 48.0859218,5.36871321 C47.644816,5.66069725 47.2037103,5.96414894 46.7635028,6.28083254 C46.6422212,6.36816311 46.5209396,6.4528473 46.4005563,6.54194213 C46.1804526,6.70337137 45.9603489,6.87009338 45.7402452,7.03769751 C45.6108781,7.13649574 45.4815111,7.23705822 45.3530424,7.3376207 C45.1248532,7.51669248 44.8966641,7.69488214 44.6693733,7.88012881 C44.6325396,7.91012113 44.5966043,7.94099557 44.5597706,7.97098789 C44.0261315,8.40852289 43.4924923,8.86370043 42.9597515,9.33828476 C42.9103404,9.38239111 42.860031,9.42649746 42.81062,9.47060381 C42.5366133,9.71671725 42.263505,9.96724132 41.9894984,10.222176 C41.9517663,10.2583432 41.9131359,10.2945104 41.8745054,10.3306776 C39.813616,12.2669464 37.765304,14.479321 35.7394515,16.9580979 C35.7062114,16.9995579 35.6720728,17.0401357 35.6379343,17.0815957 C35.3657244,17.4168039 35.0935145,17.7564228 34.8213046,18.1004524 C34.7835726,18.1489694 34.7467389,18.1974863 34.7081084,18.2451212 C34.1924369,18.9023058 33.6785621,19.577133 33.1664841,20.2678384 C33.1170731,20.3348801 33.0667637,20.4001575 33.0173526,20.4671991 C32.8035376,20.7574189 32.5897226,21.0529315 32.3768059,21.3493261 C32.2393534,21.5407477 32.1019009,21.7321693 31.9644484,21.9262372 C31.7694994,22.2005787 31.573652,22.4766845 31.3796014,22.7563187 C31.2053152,23.0068428 31.0328257,23.2608954 30.8594379,23.514948 C30.7911609,23.6146283 30.7228838,23.7143087 30.6546067,23.813989 L30.6573019,23.8157533 L30.0473002,24.6987624 L30.0311293,24.7208156 C29.9350024,24.8601917 29.8406722,24.9986856 29.7436469,25.1362974 L29.2432479,25.8587594 L29.2288737,25.8384705 C22.2080147,35.4421873 12.8774144,41.2765753 4.44339971,41.2765753 C4.33918734,41.2765753 4.23587336,41.385077 4.13255937,41.3833127 C4.10740466,41.3824306 4.08224996,41.4600578 4.05709525,41.4600578 L4.02385509,41.4600578 C3.9825295,41.4600578 3.94300067,41.3744914 3.90167508,41.3727272 C3.5881396,41.3639059 3.27729926,41.33656 2.96915407,41.3109783 C2.86943362,41.3030392 2.77150993,41.2554043 2.67268786,41.2457009 C2.41844562,41.2201192 2.16510176,41.1742486 1.91445305,41.1380814 C1.79496818,41.1204389 1.67728008,41.0913287 1.55959197,41.0710397 C1.33050444,41.0331083 1.10321368,40.9872377 0.877719676,40.9396028 C0.752844512,40.9140211 0.628867731,40.8831467 0.50489095,40.8540365 C0.395288288,40.8284548 0.284787244,40.9263709 0.176082965,40.899025 C6.51596807,43.4660146 16.8922856,43.9723555 34.9488749,43.8135726" id="Fill-16" fill="#FFFFFF" mask="url(#mask-8)"></path>
                            </g>
                        </g>
                    </g>
                </g>
                <g id="Page-1" transform="translate(195.000000, 67.000000)" fill="#DBDBDB">
                    <g id="Group-6">
                        <path d="M25.856,34.816 L19.328,41.344 C17.792,42.88 15.808,43.712 13.632,43.712 C11.456,43.712 9.472,42.88 7.936,41.344 L6.144,39.552 C4.608,38.016 3.776,36.032 3.776,33.856 C3.776,31.68 4.608,29.696 6.144,28.16 L13.632,20.672 C16.768,17.536 21.888,17.536 25.024,20.672 L27.712,23.36 C28.48,24.128 29.696,24.128 30.4,23.36 C31.168,22.592 31.168,21.376 30.4,20.672 L27.712,17.984 C23.104,13.376 15.552,13.376 10.88,17.984 L3.456,25.408 C1.216,27.648 0,30.656 0,33.792 C0,36.928 1.216,39.936 3.456,42.176 L5.248,43.968 C7.488,46.208 10.496,47.424 13.632,47.424 C16.768,47.424 19.776,46.208 22.016,43.968 L28.544,37.44 C29.312,36.672 29.312,35.456 28.544,34.752 C27.84,34.048 26.624,34.048 25.856,34.816" id="Fill-1"></path>
                        <path d="M42.176,3.456 C39.936,1.216 36.928,0 33.792,0 C30.656,0 27.648,1.216 25.408,3.456 L19.776,9.088 C19.008,9.856 19.008,11.072 19.776,11.776 C20.544,12.544 21.76,12.544 22.464,11.776 L28.096,6.144 C29.632,4.608 31.616,3.776 33.792,3.776 C35.968,3.776 37.952,4.608 39.488,6.144 L41.28,7.936 C42.816,9.472 43.648,11.456 43.648,13.632 C43.648,15.808 42.816,17.792 41.28,19.328 L34.752,25.92 C33.216,27.456 31.232,28.288 29.056,28.288 C26.88,28.288 24.896,27.456 23.36,25.92 L20.672,23.232 C19.904,22.464 18.688,22.464 17.984,23.232 C17.216,24 17.216,25.216 17.984,25.92 L20.672,28.608 C22.912,30.848 25.92,32.064 29.056,32.064 C32.256,32.064 35.2,30.848 37.44,28.608 L43.968,22.08 C46.208,19.84 47.424,16.832 47.424,13.696 C47.424,10.56 46.208,7.552 43.968,5.312 L42.176,3.456 Z" id="Fill-3"></path>
                    </g>
                </g>
            </g>
        </g>
    </g>
</svg>